# xmcd
#
# Track frame offsets: 
#        150
#        15029
#        29703
#        43766
#        63467
#        76311
#        93385
#        114271
#        128357
#        143991
#
# Disc length: 2218 seconds
#
# Revision: 0
# Processed by: cddbd v1.5.2PL0 Copyright (c) Steve Scherf et al.
# Submitted via: ExactAudioCopy v0.99pb4
#
DISCID=7608a80a
DTITLE=Wade Hatton and The Texas Hatband - Raunchy-Tonkin´Rowdy
DYEAR=2008
DGENRE=Country
TTITLE0=Only One X in Texas
TTITLE1=Let´s Play Some Texas Hold´em
TTITLE2=Cuttin´ Loose from the Blues
TTITLE3=Battered by the Bottle
TTITLE4=Took Me Till Friday To Get Over Last Saturday Night
TTITLE5=It´s a Waste Getting Wasted
TTITLE6=Waylon at the Moon
TTITLE7=24 Beer Ago
TTITLE8=Raunchy-Tonkin´ Rowdy
TTITLE9=Just Another Texas Outlaw
EXTD=
EXTT0=
EXTT1=
EXTT2=
EXTT3=
EXTT4=
EXTT5=
EXTT6=
EXTT7=
EXTT8=
EXTT9=
PLAYORDER=
